HIERARCHY
ROOT pelvis
{
	OFFSET 0.003123 -0.351407 0.012037
	CHANNELS 6 Xposition Yposition Zposition Zrotation Yrotation Xrotation 
	JOINT left_hip
	{
		OFFSET 0.058189 -0.092763 -0.026001
		CHANNELS 3 Zrotation Yrotation Xrotation
		JOINT left_knee
		{
			OFFSET 0.054695 -0.378753 -0.009396
			CHANNELS 3 Zrotation Yrotation Xrotation
			JOINT left_ankle
			{
				OFFSET -0.043453 -0.403059 -0.031876
				CHANNELS 3 Zrotation Yrotation Xrotation
				JOINT left_foot
				{
					OFFSET 0.047257 -0.057997 0.118216
					CHANNELS 3 Zrotation Yrotation Xrotation
					End Site
					{
						OFFSET 0.000000 0.000000 0.000000
					}
				}
			}
		}
	}
	JOINT right_hip
	{
		OFFSET -0.063267 -0.103908 -0.021250
		CHANNELS 3 Zrotation Yrotation Xrotation
		JOINT right_knee
		{
			OFFSET -0.044210 -0.362380 -0.016824
			CHANNELS 3 Zrotation Yrotation Xrotation
			JOINT right_ankle
			{
				OFFSET 0.015417 -0.410728 -0.020192
				CHANNELS 3 Zrotation Yrotation Xrotation
				JOINT right_foot
				{
					OFFSET -0.038812 -0.058328 0.119049
					CHANNELS 3 Zrotation Yrotation Xrotation
					End Site
					{
						OFFSET 0.000000 0.000000 0.000000
					}
				}
			}
		}
	}
	JOINT spine_1
	{
		OFFSET -0.002763 0.109891 -0.027618
		CHANNELS 3 Zrotation Yrotation Xrotation
		JOINT spine_2
		{
			OFFSET 0.009448 0.131853 -0.005940
			CHANNELS 3 Zrotation Yrotation Xrotation
			JOINT spine_3
			{
				OFFSET -0.011330 0.052235 0.028447
				CHANNELS 3 Zrotation Yrotation Xrotation
				JOINT neck
				{
					OFFSET -0.012164 0.165167 -0.031615
					CHANNELS 3 Zrotation Yrotation Xrotation
					JOINT head
					{
						OFFSET 0.024783 0.160452 0.020737
						CHANNELS 3 Zrotation Yrotation Xrotation
						End Site
						{
							OFFSET 0.000000 0.000000 0.000000
						}
					}
				}
				JOINT left_collar
				{
					OFFSET 0.046364 0.084944 -0.007220
					CHANNELS 3 Zrotation Yrotation Xrotation
					JOINT left_shoulder
					{
						OFFSET 0.119239 0.057728 -0.015461
						CHANNELS 3 Zrotation Yrotation Xrotation
						JOINT left_elbow
						{
							OFFSET 0.254123 -0.072151 -0.042459
							CHANNELS 3 Zrotation Yrotation Xrotation
							JOINT left_wrist
							{
								OFFSET 0.251987 0.023221 -0.002472
								CHANNELS 3 Zrotation Yrotation Xrotation
								JOINT left_index_1
								{
									OFFSET 0.101902 -0.008688 0.019351
									CHANNELS 3 Zrotation Yrotation Xrotation
									JOINT left_index_2
									{
										OFFSET 0.030149 -0.011154 0.001151
										CHANNELS 3 Zrotation Yrotation Xrotation
										JOINT left_index_3
										{
											OFFSET 0.006504 -0.021577 -0.002433
											CHANNELS 3 Zrotation Yrotation Xrotation
											End Site
											{
												OFFSET 0.000000 0.000000 0.000000
											}
										}
									}
								}
								JOINT left_middle_1
								{
									OFFSET 0.109398 -0.006328 -0.003981
									CHANNELS 3 Zrotation Yrotation Xrotation
									JOINT left_middle_2
									{
										OFFSET 0.026472 -0.015218 -0.004641
										CHANNELS 3 Zrotation Yrotation Xrotation
										JOINT left_middle_3
										{
											OFFSET 0.005022 -0.023347 -0.001911
											CHANNELS 3 Zrotation Yrotation Xrotation
											End Site
											{
												OFFSET 0.000000 0.000000 0.000000
											}
										}
									}
								}
								JOINT left_pinky_1
								{
									OFFSET 0.084047 -0.014539 -0.043750
									CHANNELS 3 Zrotation Yrotation Xrotation
									JOINT left_pinky_2
									{
										OFFSET 0.012124 -0.014448 -0.005375
										CHANNELS 3 Zrotation Yrotation Xrotation
										JOINT left_pinky_3
										{
											OFFSET 0.003798 -0.018853 0.000167
											CHANNELS 3 Zrotation Yrotation Xrotation
											End Site
											{
												OFFSET 0.000000 0.000000 0.000000
											}
										}
									}
								}
								JOINT left_ring_1
								{
									OFFSET 0.097444 -0.009268 -0.027345
									CHANNELS 3 Zrotation Yrotation Xrotation
									JOINT left_ring_2
									{
										OFFSET 0.023561 -0.016057 -0.001895
										CHANNELS 3 Zrotation Yrotation Xrotation
										JOINT left_ring_3
										{
											OFFSET 0.004257 -0.023548 0.000814
											CHANNELS 3 Zrotation Yrotation Xrotation
											End Site
											{
												OFFSET 0.000000 0.000000 0.000000
											}
										}
									}
								}
								JOINT left_thumb_1
								{
									OFFSET 0.040636 -0.017977 0.025611
									CHANNELS 3 Zrotation Yrotation Xrotation
									JOINT left_thumb_2
									{
										OFFSET 0.021637 -0.017639 0.011623
										CHANNELS 3 Zrotation Yrotation Xrotation
										JOINT left_thumb_3
										{
											OFFSET 0.024002 -0.008356 0.006548
											CHANNELS 3 Zrotation Yrotation Xrotation
											End Site
											{
												OFFSET 0.000000 0.000000 0.000000
											}
										}
									}
								}
							}
						}
					}
				}
				JOINT right_collar
				{
					OFFSET -0.047695 0.084339 -0.013400
					CHANNELS 3 Zrotation Yrotation Xrotation
					JOINT right_shoulder
					{
						OFFSET -0.102578 0.053524 -0.012669
						CHANNELS 3 Zrotation Yrotation Xrotation
						JOINT right_elbow
						{
							OFFSET -0.271150 -0.036492 -0.026467
							CHANNELS 3 Zrotation Yrotation Xrotation
							JOINT right_wrist
							{
								OFFSET -0.249267 -0.004533 -0.015325
								CHANNELS 3 Zrotation Yrotation Xrotation
								JOINT right_index_1
								{
									OFFSET -0.099881 -0.011783 0.019600
									CHANNELS 3 Zrotation Yrotation Xrotation
									JOINT right_index_2
									{
										OFFSET -0.030148 -0.011154 0.001151
										CHANNELS 3 Zrotation Yrotation Xrotation
										JOINT right_index_3
										{
											OFFSET -0.006505 -0.021577 -0.002432
											CHANNELS 3 Zrotation Yrotation Xrotation
											End Site
											{
												OFFSET 0.000000 0.000000 0.000000
											}
										}
									}
								}
								JOINT right_middle_1
								{
									OFFSET -0.107376 -0.009422 -0.003734
									CHANNELS 3 Zrotation Yrotation Xrotation
									JOINT right_middle_2
									{
										OFFSET -0.026472 -0.015218 -0.004641
										CHANNELS 3 Zrotation Yrotation Xrotation
										JOINT right_middle_3
										{
											OFFSET -0.005022 -0.023347 -0.001911
											CHANNELS 3 Zrotation Yrotation Xrotation
											End Site
											{
												OFFSET 0.000000 0.000000 0.000000
											}
										}
									}
								}
								JOINT right_pinky_1
								{
									OFFSET -0.082027 -0.017634 -0.043503
									CHANNELS 3 Zrotation Yrotation Xrotation
									JOINT right_pinky_2
									{
										OFFSET -0.012123 -0.014448 -0.005374
										CHANNELS 3 Zrotation Yrotation Xrotation
										JOINT right_pinky_3
										{
											OFFSET -0.003798 -0.018852 0.000167
											CHANNELS 3 Zrotation Yrotation Xrotation
											End Site
											{
												OFFSET 0.000000 0.000000 0.000000
											}
										}
									}
								}
								JOINT right_ring_1
								{
									OFFSET -0.095423 -0.012362 -0.027099
									CHANNELS 3 Zrotation Yrotation Xrotation
									JOINT right_ring_2
									{
										OFFSET -0.023561 -0.016057 -0.001895
										CHANNELS 3 Zrotation Yrotation Xrotation
										JOINT right_ring_3
										{
											OFFSET -0.004257 -0.023548 0.000816
											CHANNELS 3 Zrotation Yrotation Xrotation
											End Site
											{
												OFFSET 0.000000 0.000000 0.000000
											}
										}
									}
								}
								JOINT right_thumb_1
								{
									OFFSET -0.038613 -0.021074 0.025861
									CHANNELS 3 Zrotation Yrotation Xrotation
									JOINT right_thumb_2
									{
										OFFSET -0.021636 -0.017639 0.011623
										CHANNELS 3 Zrotation Yrotation Xrotation
										JOINT right_thumb_3
										{
											OFFSET -0.024004 -0.008353 0.006547
											CHANNELS 3 Zrotation Yrotation Xrotation
											End Site
											{
												OFFSET 0.000000 0.000000 0.000000
											}
										}
									}
								}
							}
						}
					}
				}
			}
		}
	}
}
MOTION
Frames: 6
Frame Time: 0.050000
-0.120579 0.948515 -0.004692 1.130652 -14.553873 -14.830743 15.211439 0.735080 -2.034673 2.380306 -1.807443 14.304175 -4.793059 -0.259093 13.440693 0.000000 0.000000 0.000000 1.081286 -1.172296 10.834699 7.238020 -0.254090 10.073786 -2.308421 -2.150473 -2.873032 0.000000 0.000000 0.000000 0.430539 -1.220707 15.655930 -2.482005 -0.891326 -7.188058 7.343433 -4.105932 22.776284 -1.101534 0.420717 -2.403252 0.000000 0.000000 0.000000 -8.734487 -7.315442 4.718404 -44.251217 -31.193188 -3.118731 139.675766 -82.159786 -117.558136 1.821655 -4.841784 -16.110174 -13.186736 0.257515 0.816517 -28.507970 0.316168 -1.257569 0.000000 0.000000 0.000000 -19.522312 -16.384619 -8.125154 -38.502481 -4.489629 -8.351032 0.000000 0.000000 0.000000 5.818812 -24.636179 -36.625399 -22.440816 -1.308735 -2.758008 0.000000 0.000000 0.000000 -18.706752 -23.020113 -11.632374 -30.482595 -10.959973 -14.548391 0.000000 0.000000 0.000000 24.736956 24.836984 12.494885 -19.527913 -15.156916 1.649261 0.000000 0.000000 0.000000 2.639140 5.163913 2.188778 49.915081 19.701432 -2.667645 -109.680525 77.266415 -100.519465 -4.008923 -2.120942 -14.740603 25.717798 -3.279384 1.292709 58.380483 -3.083812 0.992987 0.000000 0.000000 0.000000 48.944759 7.565820 -5.569628 52.085286 11.565981 -17.017363 0.000000 0.000000 0.000000 42.569802 39.379727 -37.357351 17.868691 -8.258544 17.150958 0.000000 0.000000 0.000000 53.529003 28.933466 -4.777167 38.960374 11.334054 -11.663623 0.000000 0.000000 0.000000 -3.782675 -21.495454 13.674451 -7.448203 8.857682 -6.284839 0.000000 0.000000 0.000000 
-0.121521 0.947387 -0.006012 0.998334 -13.224021 -16.148292 16.002497 0.760074 -1.544584 1.491252 -1.866145 16.967231 -3.913356 0.531588 12.039338 0.000000 0.000000 0.000000 0.761337 -1.300047 12.587437 8.192339 -0.378003 9.582450 -2.693118 -3.046992 -2.813557 0.000000 0.000000 0.000000 0.817055 -1.283999 16.561476 -2.405182 -1.360957 -8.968321 6.553589 -2.838996 25.965682 -1.240845 0.502750 -2.724581 0.000000 0.000000 0.000000 -6.822289 -8.519143 5.018403 -43.399326 -31.748280 -3.409352 140.452213 -82.227298 -118.716808 3.037061 -4.445323 -14.658367 -10.411265 -0.036015 0.548271 -24.018105 -1.157036 -4.754818 0.000000 0.000000 0.000000 -16.969509 -16.834577 -8.507487 -39.471873 -7.315228 -13.249871 0.000000 0.000000 0.000000 11.264998 -26.570659 -41.263405 -26.371600 0.918971 1.699072 0.000000 0.000000 0.000000 -16.511959 -23.143167 -12.190685 -21.831836 -10.996827 -19.505544 0.000000 0.000000 0.000000 25.504155 24.809357 12.945277 -18.250613 -13.643377 1.646541 0.000000 0.000000 0.000000 3.701081 5.261744 2.147652 49.481539 21.088136 -1.992115 -96.267950 75.594595 -83.804051 -3.742905 -1.282159 -17.600942 21.525225 -12.102096 0.530579 70.301172 -2.217104 -0.801348 0.000000 0.000000 0.000000 50.278077 6.482434 -5.403535 63.270297 12.099020 -14.214436 0.000000 0.000000 0.000000 43.526285 42.026873 -38.418895 4.430420 -7.856730 22.074441 0.000000 0.000000 0.000000 55.279577 30.092606 -4.347351 32.047190 9.745364 -10.006170 0.000000 0.000000 0.000000 -2.401140 -21.612594 12.932800 -15.228004 7.025673 -6.966270 0.000000 0.000000 0.000000 
-0.119637 0.945936 -0.009972 1.412347 -12.378932 -16.165240 16.190232 0.724205 -2.367449 1.274074 -2.022777 19.188133 -5.008148 -1.097102 12.086634 0.000000 0.000000 0.000000 0.523086 -1.282126 12.582117 7.855236 -0.363553 9.009320 -3.215503 -3.760438 -3.307761 0.000000 0.000000 0.000000 0.612375 -1.239001 16.111566 -2.608727 -0.773550 -7.242333 6.063662 -3.073806 24.824900 -0.984843 0.578974 -3.635015 0.000000 0.000000 0.000000 -6.755545 -7.909461 4.622576 -43.472700 -31.345942 -3.433143 154.456950 -79.948959 -132.624239 3.438734 -2.320699 -14.363736 -7.056683 3.930070 1.311238 -18.907574 0.630584 -0.426692 0.000000 0.000000 0.000000 -12.783740 -12.813692 -7.150645 -38.614753 -3.089631 -6.356228 0.000000 0.000000 0.000000 13.958059 -24.193455 -37.208159 -19.093055 0.975339 2.334593 0.000000 0.000000 0.000000 -12.753590 -19.131099 -10.962580 -23.383016 -11.335191 -19.217585 0.000000 0.000000 0.000000 27.319909 28.219785 18.478218 -17.611626 -15.710117 1.145645 0.000000 0.000000 0.000000 4.148965 5.257434 2.083119 49.203209 21.097224 -1.804319 -96.832327 74.461020 -83.095762 -3.384525 0.289499 -16.459073 36.220502 -18.371573 -1.431547 67.403560 -2.103036 -1.002036 0.000000 0.000000 0.000000 62.841611 -1.110265 -5.885816 45.861183 10.937546 -18.101532 0.000000 0.000000 0.000000 56.157895 42.184468 -33.517176 -1.336985 -8.219492 28.576671 0.000000 0.000000 0.000000 65.850335 27.775833 -1.047136 27.425878 6.535934 -8.046532 0.000000 0.000000 0.000000 6.666615 -21.167728 17.018960 -33.385171 1.284597 -4.730928 0.000000 0.000000 0.000000 
-0.116810 0.946259 -0.006012 1.326964 -11.386787 -15.673012 16.698938 0.704073 -3.422930 1.210448 -2.243639 21.536405 -4.555231 -0.618489 11.479959 0.000000 0.000000 0.000000 0.284665 -1.252514 12.380152 8.109819 -0.408775 8.842243 -3.503675 -4.555679 -3.092260 0.000000 0.000000 0.000000 0.565550 -1.216930 15.945910 -2.588802 -0.808669 -7.477926 6.853626 -2.952690 24.117144 -1.440751 0.512986 -2.422500 0.000000 0.000000 0.000000 -8.110178 -8.559179 5.082494 -43.177687 -33.292457 -3.422219 149.292613 -79.914411 -126.959129 3.209919 -3.837230 -14.545854 -10.302712 0.703153 0.708675 -23.511080 1.886035 1.975593 0.000000 0.000000 0.000000 -14.470435 -13.115239 -7.216362 -39.185776 -3.355630 -6.692777 0.000000 0.000000 0.000000 8.942761 -23.480000 -35.007282 -28.290182 0.003718 0.191091 0.000000 0.000000 0.000000 -16.016923 -18.781445 -10.098994 -27.049133 -8.605970 -12.125812 0.000000 0.000000 0.000000 23.431515 27.286079 17.514618 -16.162514 -14.207786 0.741104 0.000000 0.000000 0.000000 3.822234 5.434363 2.265540 48.327648 19.463379 -2.168718 -103.237918 75.077299 -90.257434 -6.946295 0.047916 -14.636792 36.674880 -4.991416 1.806275 61.258707 -5.772009 2.500525 0.000000 0.000000 0.000000 57.985013 0.800944 -5.564821 48.898830 9.056892 -15.831488 0.000000 0.000000 0.000000 52.466272 43.059179 -35.450303 4.044139 -8.445476 26.576241 0.000000 0.000000 0.000000 62.642550 27.371356 -1.593098 27.157906 6.325549 -8.669329 0.000000 0.000000 0.000000 7.874361 -21.536905 18.413437 -23.797775 7.016516 -9.116725 0.000000 0.000000 0.000000 
-0.113041 0.946420 -0.004692 1.582481 -10.403558 -16.075611 17.575293 0.726902 -3.859111 0.511854 -2.301259 24.152345 -4.511525 -0.151160 11.856063 0.000000 0.000000 0.000000 -0.331216 -1.223352 12.850927 8.274582 -0.451803 8.833350 -3.815982 -5.290717 -3.025140 0.000000 0.000000 0.000000 -0.175595 -1.168383 16.077658 -2.906175 -0.226993 -6.028274 7.565146 -4.562442 23.291335 -1.125643 0.745130 -4.713500 0.000000 0.000000 0.000000 -7.113693 -7.778022 4.586462 -44.352826 -35.484286 -2.617678 146.696831 -79.488383 -123.525273 4.118642 -3.599328 -12.780106 -12.965178 0.790491 0.867515 -27.844570 2.912155 2.668326 0.000000 0.000000 0.000000 -17.800043 -13.549164 -7.370938 -45.091071 -2.566210 -5.952439 0.000000 0.000000 0.000000 6.231394 -23.336681 -33.770111 -34.892988 -2.069896 -3.202351 0.000000 0.000000 0.000000 -19.753716 -19.402919 -9.754644 -35.168858 -10.895889 -13.562458 0.000000 0.000000 0.000000 22.344650 27.789658 18.985853 -15.429610 -15.726175 0.212531 0.000000 0.000000 0.000000 3.129822 4.336925 1.740566 47.939051 19.676088 -2.242052 -111.916740 75.736591 -100.742084 -7.403020 -0.293576 -14.450208 34.363508 -6.401334 1.357066 65.729528 -6.364046 2.069930 0.000000 0.000000 0.000000 62.798226 7.719991 -5.492677 52.407296 6.452475 -12.117276 0.000000 0.000000 0.000000 62.821220 44.755775 -32.873745 -1.247686 -7.016574 28.440137 0.000000 0.000000 0.000000 70.782709 32.956795 0.130264 25.365453 4.294253 -5.442428 0.000000 0.000000 0.000000 8.145887 -21.624353 18.352704 -30.952575 1.381534 -5.735514 0.000000 0.000000 0.000000 
-0.113983 0.946742 -0.003372 1.482846 -10.096622 -17.704395 18.492652 0.820958 -3.295430 -0.222279 -2.312232 27.032544 -4.233368 0.077783 11.370430 0.000000 0.000000 0.000000 0.171671 -1.413639 14.135838 7.567486 -0.413298 9.974372 -4.003022 -5.646283 -3.076364 0.000000 0.000000 0.000000 0.120348 -1.246602 17.342506 -3.057092 -0.159714 -6.080266 7.242698 -4.292894 23.484714 -1.949237 0.808632 -4.128508 0.000000 0.000000 0.000000 -4.751560 -8.750347 4.824161 -44.340173 -36.645771 -2.273061 137.244817 -79.114860 -112.778540 3.504770 -4.779062 -13.645030 -12.775896 2.271282 1.131717 -33.762570 2.498855 1.375677 0.000000 0.000000 0.000000 -19.167174 -13.049043 -7.123525 -42.705368 -5.113375 -9.686440 0.000000 0.000000 0.000000 6.963838 -24.270489 -35.799444 -31.440245 -1.601860 -2.582989 0.000000 0.000000 0.000000 -18.262424 -21.274737 -10.974946 -30.880433 -9.955534 -13.303823 0.000000 0.000000 0.000000 24.988167 28.963608 20.109197 -19.461188 -17.362575 1.488035 0.000000 0.000000 0.000000 3.248448 3.521577 1.291766 47.210688 18.855513 -2.372024 -122.083662 75.942731 -112.439896 -6.625765 -0.313971 -14.345241 24.414427 -9.641918 1.233523 65.419947 -4.583017 0.742184 0.000000 0.000000 0.000000 46.879517 9.585112 -5.537319 55.798546 8.167997 -12.580303 0.000000 0.000000 0.000000 27.928718 40.878065 -43.962213 19.994392 -9.582164 18.610490 0.000000 0.000000 0.000000 46.617032 29.946977 -6.502716 37.198481 8.729473 -8.963990 0.000000 0.000000 0.000000 -0.445183 -24.796858 18.180471 -14.135866 12.273777 -10.186019 0.000000 0.000000 0.000000 
